# xmcd CD database file
#
# Track frame offsets:
#	150
#	10128
#	31708
#	51603
#	82549
#	111405
#	133606
#	157020
#	188371
#	239170
#	256988
#	274426
#
# Disc length: 3987 seconds
#
# Revision: 3
# Processed by: cddbd v1.5.2PL0 Copyright (c) Steve Scherf et al.
# Submitted via: CDex 1.70beta2
#
DISCID=9f0f910c
DTITLE=Rhapsody OF FIRE - THE FROZEN TEARS OFf ANGELS
DYEAR=2010
DGENRE=Power Metal
TTITLE0=Dark Frozen World
TTITLE1=Sea Of Fate
TTITLE2=Crystal Moonlight
TTITLE3=Reign Of Terror
TTITLE4=Danza Di Fuoco E Ghiaccio
TTITLE5=Raging Starfire
TTITLE6=Lost In Cold Dreams
TTITLE7=On The Way To Ainor
TTITLE8=The Frozen Tears Of Angels
TTITLE9=Labyrinth Of Madness
TTITLE10=Sea Of Fate (Orchestral Version)
TTITLE11=Immortal New Reign [Bonus Track]
EXTD=YEAR: 2010
EXTT0=
EXTT1=
EXTT2=
EXTT3=
EXTT4=
EXTT5=
EXTT6=
EXTT7=
EXTT8=
EXTT9=
EXTT10=
EXTT11=
PLAYORDER=
